<?xml version="1.0" encoding="utf-8"?>
<!-- Generator: Adobe Illustrator 26.4.1, SVG Export Plug-In . SVG Version: 6.00 Build 0)  -->
<svg version="1.1" id="Layer_1" xmlns="http://www.w3.org/2000/svg" xmlns:xlink="http://www.w3.org/1999/xlink" x="0px" y="0px"
	 viewBox="0 0 459.4 106.7" style="enable-background:new 0 0 459.4 106.7;" xml:space="preserve">
<g>
	<path style="fill:#679A41;" d="M144.7,32.7c1.5,1.6,2.8,3.3,3.9,5.1C147.5,36,146.2,34.3,144.7,32.7"/>
	<path style="fill:#92C95B;" d="M148.6,37.8c0.4,0.7,0.8,1.4,1.1,2.1C149.3,39.2,149,38.5,148.6,37.8"/>
	<path style="fill:#293C51;" d="M108.1,73.4v5.2h-36c-8,0.3-14.7-5.9-15.1-13.9c0-0.2,0-0.5,0-0.7v-1.1c0.2-11,6.5-20.9,16.3-25.8
		l1.2-0.6v-1.2c0.5-3.5,1.4-7,2.9-10.2l1.1,2.5l10.2,27.9L95,38.4h4.7l0.2,0.6l-4.7,13c-1.5,4.2-3.1,8.4-4.7,12.5h-3.8l-8.6-23.7H78
		c-9.8,3.5-16.2,12.9-15.9,23.3c0,5.1,4.2,9.3,9.3,9.3c0.2,0,0.4,0,0.6,0H108.1z"/>
	<path style="fill:#679A41;" d="M162.5,65.4v1.2c0,0.2,0,0.3,0,0.5l0,0c0,0.1,0,0.3,0,0.4c0,0.2,0,0.2,0,0.3
		c-0.9,4.7-4.8,10.8-14.8,10.8h-15.2L116,97.2V50.6h21.3v-7c0-0.1-0.1-0.2-0.2-0.3h-21.4l-7.8,21.2h-3.8l-5.1-14l2.5-7.2l4.5,12.2
		l6.3-17.2H137c2.8,0,5.1,2.3,5.1,5.1v7c-0.1,2.8-2.3,5-5.1,5.1h-16.3v27.9l10-10h16.6c7.8,0,9.9-5,9.9-8c0-10.3-7.1-11.2-7.9-11.2
		c-1.3-0.1-2.3-1.3-2.3-2.6c0-11.9-9.1-21.7-20.3-21.7c-0.8,0-1.6,0.1-2.3,0.2c-1.2,0.2-2.3-0.5-2.7-1.5
		c-4.7-11-17.5-16.1-28.5-11.4c-3.3,1.4-6.2,3.7-8.5,6.5l-2.2-5.5c10.4-10.5,27.4-10.6,38-0.2l0,0c1.7,1.7,3.1,3.6,4.3,5.6l0.7,1.1
		h1.3c6.6,0,12.9,2.7,17.5,7.4l0.4,0.4c1.5,1.6,2.8,3.3,3.9,5.2c0.4,0.7,0.8,1.4,1.1,2.1c1.2,2.6,2,5.3,2.3,8.1l0.2,1.3l1.2,0.5
		C156.8,51.3,162.6,55.2,162.5,65.4"/>
	<path style="fill:#293C51;" d="M186.7,34.2c0-0.3,0.2-0.6,0.3-1c0.2-0.4,0.4-0.7,0.7-1c0.3-0.3,0.7-0.6,1.2-0.8
		c0.6-0.2,1.3-0.3,1.9-0.3s1.3,0.1,1.8,0.3c0.5,0.2,0.9,0.4,1.2,0.8c0.3,0.3,0.6,0.6,0.8,1c0.2,0.3,0.3,0.7,0.4,1l5.5,20.4
		c0.1,0.2,0.1,0.3,0.3,0.5c0.1,0.2,0.2,0.3,0.4,0.3c0.1,0,0.3-0.1,0.3-0.2c0.2-0.2,0.3-0.5,0.3-0.8l5.9-23h5.8l-7.2,26
		c-0.2,0.5-0.3,1-0.5,1.5s-0.4,1-0.8,1.4s-0.9,0.8-1.4,1c-0.7,0.3-1.4,0.4-2.1,0.4s-1.4-0.1-2-0.3c-0.5-0.2-1-0.5-1.4-0.9
		c-0.4-0.3-0.7-0.8-0.9-1.2c-0.2-0.5-0.4-1-0.5-1.5l-5.3-19.4c-0.1-0.5-0.3-0.8-0.6-0.8c-0.2,0-0.3,0.1-0.3,0.3l-0.2,0.5L185,57.8
		c-0.1,0.4-0.3,0.9-0.5,1.3c-0.2,0.4-0.4,0.9-0.8,1.2c-0.4,0.4-0.8,0.7-1.4,0.9c-0.7,0.3-1.4,0.4-2.1,0.4c-1.1,0-2.1-0.3-3-0.9
		c-1-0.9-1.6-2-1.9-3.3l-7.2-26.1h5.7l6,23l0.2,0.5c0.1,0.2,0.3,0.4,0.6,0.3c0.1,0,0.2-0.1,0.3-0.3c0.1-0.1,0.2-0.3,0.3-0.5
		L186.7,34.2z"/>
	<path style="fill:#293C51;" d="M227.7,38.6c0.8,0,1.6,0.1,2.3,0.3c0.8,0.2,1.6,0.4,2.3,0.7c0.8,0.3,1.5,0.8,2.1,1.4
		c0.6,0.6,1.2,1.3,1.5,2.1c0.4,0.8,0.7,1.6,0.9,2.5c0.2,0.8,0.3,1.6,0.4,2.4c0,0.8,0,1.5,0,2.1c0.1,2-0.2,3.9-0.8,5.8
		c-0.4,1.3-1.1,2.4-2.1,3.4c-0.6,0.6-1.3,1-2.1,1.4c-0.7,0.3-1.5,0.6-2.3,0.7c-0.8,0.1-1.5,0.2-2.3,0.3h-2.2c-0.7,0-1.4,0-2.3,0
		c-0.8,0-1.6-0.1-2.3-0.3c-0.8-0.2-1.6-0.4-2.3-0.7c-0.8-0.3-1.5-0.8-2.1-1.4c-0.7-0.6-1.2-1.3-1.6-2.1s-0.8-1.6-1-2.5
		c-0.2-0.8-0.3-1.6-0.4-2.4c0-0.7,0-1.4,0-2c0-0.7,0-1.5,0-2.2c0.1-0.8,0.2-1.7,0.4-2.5c0.2-0.9,0.5-1.7,0.9-2.5s0.9-1.5,1.5-2.1
		s1.3-1,2.1-1.4c0.7-0.3,1.5-0.6,2.3-0.7c0.8-0.2,1.5-0.2,2.3-0.3h2.3c0.7,0,1.4,0,2.3,0 M218.8,53.2c0.1,1,0.6,2,1.3,2.8
		s1.6,1.3,2.6,1.5c0.9,0.2,1.9,0.3,2.8,0.3c1,0,1.9-0.1,2.8-0.3c1-0.2,1.9-0.8,2.6-1.5c0.7-0.8,1.2-1.7,1.3-2.8c0.1-1,0.2-2,0.2-3.1
		v-1.4c0-0.5,0-1.1,0-1.6c-0.1-0.5-0.2-1.1-0.4-1.6c-0.4-1-1.2-1.8-2.1-2.3c-0.4-0.2-0.9-0.4-1.4-0.6c-0.5-0.1-0.9-0.2-1.4-0.2h-1.4
		c-0.4,0-0.9,0-1.3,0c-0.5,0-1,0.1-1.5,0.2c-0.5,0.1-1,0.3-1.4,0.6c-0.5,0.3-0.9,0.6-1.2,1c-0.4,0.4-0.6,0.9-0.8,1.4
		s-0.3,1.1-0.4,1.7c-0.1,0.5-0.1,1.1-0.2,1.6v1.3c0,1,0.1,2,0.2,3"/>
	<path style="fill:#293C51;" d="M240.4,47.3c0-1.2,0.1-2.4,0.4-3.6c0.3-1.2,1-2.2,1.9-3c0.5-0.5,1.1-0.8,1.7-1.1
		c0.6-0.3,1.2-0.5,1.8-0.6s1.2-0.2,1.8-0.2h1.5h3.4v3.8h-2.1c-0.7,0-1.5,0.1-2.2,0.3c-0.8,0.2-1.5,0.6-2.1,1.3c-0.5,0.6-0.8,1.3-1,2
		c-0.1,0.8-0.2,1.6-0.2,2.4v12.8h-5L240.4,47.3z"/>
	<rect x="254.6" y="31.5" style="fill:#293C51;" width="5" height="29.9"/>
	<path style="fill:#293C51;" d="M283.6,31.5v26c0,0.5,0,1-0.2,1.5c-0.1,0.5-0.2,0.9-0.5,1.3c-0.3,0.5-0.9,0.9-1.5,1
		c-0.5,0.1-1.1,0.2-1.7,0.2h-8.9c-0.6,0-1.2-0.1-1.9-0.2c-0.7-0.1-1.4-0.3-2-0.6c-0.7-0.3-1.3-0.8-1.8-1.4c-0.7-0.7-1.2-1.5-1.5-2.3
		c-0.4-0.9-0.6-1.8-0.8-2.7c-0.3-1.5-0.4-3-0.3-4.5c0-1.3,0.1-2.6,0.3-3.9c0.2-1.3,0.7-2.6,1.4-3.7c0.5-0.7,1.1-1.4,1.9-1.9
		c0.7-0.4,1.4-0.8,2.1-1c0.7-0.2,1.3-0.3,2-0.4c0.6,0,1.2,0,1.6,0h6.7v-7.4L283.6,31.5L283.6,31.5z M272.9,42.7
		c-0.7,0-1.5,0.1-2.2,0.3c-0.9,0.3-1.6,0.9-2,1.7c-0.3,0.6-0.6,1.2-0.7,1.8c-0.2,1.2-0.3,2.3-0.3,3.5c-0.1,1.2,0,2.5,0.2,3.7
		c0,0.5,0.2,0.9,0.3,1.4c0.2,0.5,0.6,1,1,1.4c0.3,0.3,0.7,0.6,1.2,0.8c0.4,0.2,0.8,0.3,1.3,0.3c0.4,0,0.8,0,1.2,0h4.7
		c0.6,0,1-0.5,1-1.1c0-0.3,0-0.6,0-0.8V42.8L272.9,42.7z"/>
	<path style="fill:#679A41;" d="M287.8,61.4V36c0-0.6,0-1.2,0.1-1.7c0.1-0.6,0.4-1.2,0.9-1.6c0.5-0.5,1-0.8,1.7-0.9
		c0.6-0.1,1.1-0.2,1.7-0.2h15.6c0.5,0,1,0.1,1.5,0.2s1.1,0.3,1.6,0.5c0.6,0.3,1.1,0.6,1.5,1.1c0.5,0.5,0.9,1,1.2,1.7s0.5,1.3,0.7,2
		s0.2,1.4,0.3,2.1c0,0.7,0,1.4,0,2c0,0.6,0,1.3,0,2c-0.1,0.8-0.2,1.6-0.3,2.3c-0.2,0.8-0.4,1.5-0.8,2.2c-0.3,0.7-0.8,1.3-1.4,1.7
		c-0.6,0.5-1.3,0.8-2.1,1.1s-1.7,0.4-2.5,0.4h-14v10.6L287.8,61.4z M304.1,46.3c0.6,0,1.3,0,1.9-0.1c0.7-0.1,1.3-0.4,1.7-1
		c0.2-0.3,0.4-0.6,0.5-0.9c0.1-0.4,0.2-0.7,0.3-1.1c0.1-0.4,0.1-0.7,0.1-1.1v-1c0-0.7-0.1-1.5-0.2-2.2c-0.1-0.7-0.4-1.4-0.9-1.9
		s-1.1-0.8-1.8-0.9c-0.6-0.1-1.2-0.1-1.7-0.1h-9.7c-0.3,0-0.5,0.1-0.7,0.3c-0.2,0.2-0.3,0.4-0.3,0.7c0,0.3,0,0.5,0,0.8v8.5H304.1z"
		/>
	<path style="fill:#679A41;" d="M331.8,38.6c0.8,0,1.6,0.1,2.3,0.3c0.8,0.2,1.6,0.4,2.3,0.7c0.8,0.3,1.5,0.8,2.1,1.4
		c0.6,0.6,1.2,1.3,1.5,2.1c0.4,0.8,0.7,1.6,0.9,2.5c0.2,0.8,0.3,1.6,0.4,2.4c0,0.8,0,1.5,0,2.1c0.1,2-0.2,3.9-0.8,5.8
		c-0.4,1.3-1.1,2.4-2.1,3.4c-0.6,0.6-1.3,1-2.1,1.4c-0.8,0.3-1.6,0.6-2.4,0.7c-0.8,0.2-1.6,0.2-2.5,0.3h-2.2c-0.7,0-1.4,0-2.3,0
		c-0.8,0-1.6-0.1-2.4-0.3c-0.8-0.2-1.6-0.4-2.3-0.7c-0.8-0.3-1.5-0.8-2.1-1.4c-0.7-0.6-1.2-1.3-1.6-2.1c-0.4-0.8-0.7-1.6-0.8-2.5
		c-0.2-0.8-0.3-1.6-0.4-2.4c0-0.7,0-1.4,0-2s0-1.4,0-2.2c0.1-0.8,0.2-1.7,0.4-2.5c0.2-0.9,0.5-1.7,0.9-2.5s0.9-1.5,1.5-2.1
		s1.3-1,2.1-1.4c0.7-0.3,1.5-0.6,2.3-0.7c0.8-0.2,1.6-0.3,2.4-0.3h2.2c0.7,0,1.4,0,2.3,0 M322.8,53.2c0.1,1,0.6,2,1.3,2.8
		s1.6,1.3,2.6,1.5c0.9,0.2,1.9,0.3,2.8,0.3c1,0,1.9-0.1,2.8-0.3c1-0.2,1.9-0.8,2.6-1.5c0.7-0.8,1.2-1.7,1.3-2.8c0.1-1,0.2-2,0.2-3.1
		v-1.4c0-0.5,0-1.1-0.1-1.6s-0.2-1.1-0.4-1.6s-0.5-1-0.9-1.4c-0.3-0.4-0.8-0.7-1.2-1c-0.4-0.2-0.9-0.4-1.4-0.6
		c-0.5-0.1-0.9-0.2-1.4-0.2h-1.4c-0.5,0-0.8,0-1.4,0c-0.5,0-1,0.1-1.5,0.2c-0.5,0.1-1,0.3-1.4,0.6c-0.5,0.3-0.9,0.6-1.2,1
		c-0.4,0.4-0.6,0.9-0.8,1.4s-0.3,1.1-0.4,1.7c-0.1,0.5-0.1,1.1-0.1,1.6v1.3C322.6,51.2,322.7,52.1,322.8,53.2"/>
	<path style="fill:#679A41;" d="M344.1,57.6h12.8c0.3,0,0.6,0,0.9,0c0.3-0.1,0.6-0.3,0.8-0.5s0.4-0.5,0.4-0.8c0-0.2,0-0.4,0-0.7
		s0-0.6-0.1-0.9c-0.1-0.3-0.3-0.6-0.5-0.8c-0.1-0.1-0.2-0.2-0.3-0.3l-0.7-0.3l-1.2-0.4l-1.9-0.6l-4.4-1.2c-1.1-0.3-2.1-0.6-3-1.1
		c-0.8-0.4-1.4-0.9-1.9-1.6c-0.4-0.6-0.7-1.3-0.9-2c-0.1-0.6-0.2-1.3-0.2-1.9c0-0.6,0.1-1.3,0.2-1.9c0.1-0.7,0.4-1.4,0.9-2
		c0.3-0.4,0.7-0.8,1.2-1.1c0.4-0.3,0.9-0.5,1.4-0.6s1-0.2,1.4-0.2h1.5h12.8v3.8h-11.9c-0.3,0-0.6,0-0.9,0c-0.3,0-0.6,0.2-0.9,0.4
		c-0.3,0.2-0.5,0.5-0.6,0.8c-0.1,0.6-0.1,1.2,0,1.8c0.1,0.3,0.3,0.6,0.6,0.9c0.2,0.2,0.4,0.3,0.7,0.4c0.3,0.1,0.5,0.2,0.8,0.3
		l0.7,0.3l0.6,0.2l4.9,1.4c1.4,0.4,2.5,0.8,3.4,1.1c0.8,0.3,1.6,0.8,2.2,1.4c0.6,0.6,0.9,1.3,1.1,2.1c0.2,0.7,0.3,1.4,0.3,2.1
		c0.1,1.1-0.2,2.2-0.6,3.2c-0.3,0.6-0.7,1.2-1.3,1.6c-0.5,0.4-1.2,0.7-1.8,0.8s-1.2,0.2-1.8,0.2h-14.4v-3.9H344.1z"/>
	<path style="fill:#679A41;" d="M376.7,61.4c-1.2,0-2.5-0.1-3.7-0.4c-0.8-0.3-1.6-0.7-2.3-1.3c-0.8-0.6-1.3-1.4-1.7-2.3
		c-0.4-1.1-0.6-2.3-0.6-3.5V42.6h-3.1v-3.8h3.1v-7.3h5v7.3h6.3v3.8h-6.3V53c0,0.4,0,0.9,0.1,1.3c0.1,0.4,0.2,0.9,0.4,1.3
		c0.2,0.4,0.5,0.8,0.8,1c0.6,0.5,1.3,0.8,2,0.8c0.6,0,1.2,0,1.9,0.1h1.2v3.8h-3.1V61.4z"/>
	<path style="fill:#679A41;" d="M395.4,38.8c0.9,0,1.8,0.1,2.7,0.5c1.5,0.5,2.7,1.8,3.2,3.4c0.3,1.1,0.5,2.2,0.5,3.3v11.6
		c0,0.5,0,1-0.1,1.5c-0.2,1.2-1.2,2-2.3,2.2c-0.5,0.1-1.1,0.2-1.7,0.1h-10.8c-0.7,0-1.4,0-2,0c-0.8-0.1-1.5-0.4-2-1
		c-0.5-0.4-0.8-0.9-1.1-1.4s-0.5-1.1-0.6-1.7c-0.1-0.5-0.2-1.1-0.2-1.7c0-0.6,0-1,0-1.5c0-1,0.1-2,0.3-3s0.8-1.9,1.6-2.6
		c0.6-0.6,1.3-1,2.1-1.1c0.7-0.1,1.3-0.2,2-0.2h9.8v-1.6c0-0.3,0-0.7,0-1c-0.1-0.4-0.3-0.8-0.5-1.1c-0.3-0.4-0.7-0.7-1.2-0.8
		c-0.4-0.1-0.8-0.2-1.3-0.2h-11.2v-3.8L395.4,38.8z M388.4,51.2c-0.3,0-0.6,0-0.8,0c-0.4,0.1-0.8,0.3-1,0.7
		c-0.1,0.2-0.3,0.4-0.3,0.7c-0.2,0.6-0.2,1.2-0.2,1.7c0,0.4,0,0.9,0,1.3c0,0.5,0.3,0.9,0.6,1.3c0.2,0.2,0.4,0.3,0.7,0.5
		c0.3,0.1,0.6,0.2,0.9,0.2h7.5c0.2,0,0.4-0.1,0.6-0.2c0.1-0.1,0.3-0.3,0.3-0.4v-5.6L388.4,51.2z"/>
</g>
</svg>
