<?xml version="1.0" encoding="utf-8"?>
<!-- Generator: Adobe Illustrator 28.0.0, SVG Export Plug-In . SVG Version: 6.00 Build 0)  -->
<svg version="1.1" id="Layer_1" xmlns="http://www.w3.org/2000/svg" xmlns:xlink="http://www.w3.org/1999/xlink" x="0px" y="0px"
	 viewBox="0 0 1886.6 635" style="enable-background:new 0 0 1886.6 635;" xml:space="preserve">
<style type="text/css">
	.st0{fill:#949494;}
	.st1{fill:#848484;}
	.st2{fill:#F05323;}
	.st3{opacity:0.93;}
	.st4{fill:url(#SVGID_1_);}
	.st5{opacity:0.2;}
	.st6{fill:url(#SVGID_00000070811163870373859480000016201051326455615676_);}
	.st7{opacity:5.000000e-02;fill:url(#SVGID_00000141416496576101846570000013264460263269956278_);enable-background:new    ;}
	.st8{fill:url(#SVGID_00000051354291166908766450000011898780211937346455_);}
	.st9{fill:#00AEEF;}
	.st10{fill:url(#SVGID_00000124122235323853740360000015663932872060411794_);}
	.st11{opacity:0.93;fill:#00AEEF;enable-background:new    ;}
	.st12{fill:url(#SVGID_00000150794789573265591340000014892413854222217377_);}
	.st13{fill:url(#SVGID_00000172431489815673422880000011894836250816081576_);}
	.st14{fill:url(#SVGID_00000114055250546734521910000015481938292061427616_);}
	.st15{opacity:5.000000e-02;fill:url(#SVGID_00000026140636594662935600000006093520446223541145_);enable-background:new    ;}
	.st16{opacity:0.25;fill:url(#SVGID_00000029008498462785680250000014028509417421425317_);enable-background:new    ;}
	.st17{opacity:0.25;fill:url(#SVGID_00000147909246114930632200000017685155394992949416_);enable-background:new    ;}
	.st18{fill:#FFF200;}
	.st19{opacity:0.95;}
	.st20{fill:url(#SVGID_00000124845014070863086290000007453187383504310150_);}
	.st21{fill:url(#SVGID_00000086693313676789057380000004370626938377186230_);}
	.st22{fill:#FFF57C;}
	.st23{opacity:0.93;fill:#FFF200;enable-background:new    ;}
	.st24{opacity:0.4;}
	.st25{fill:url(#SVGID_00000074433615203039525280000006958457104739577013_);}
	.st26{opacity:0.7;}
	.st27{fill:url(#SVGID_00000111166414319600561110000009908301353621326736_);}
	.st28{fill:url(#SVGID_00000004528902724973303360000007038472066985419965_);}
	.st29{fill:url(#SVGID_00000060731029187711504300000018116867388003811207_);}
	.st30{fill:#1D9647;}
	.st31{fill:#808080;}
	.st32{fill:#888888;}
	.st33{fill:url(#SVGID_00000079460026277428580800000000383685174402731939_);}
	.st34{fill:url(#SVGID_00000007389182214500789880000000566336188119910066_);}
	.st35{opacity:0.93;fill:#39B54A;enable-background:new    ;}
	.st36{opacity:0.6;}
	.st37{fill:url(#SVGID_00000121999515227124000280000018131804673722402742_);}
	.st38{opacity:0.3;}
	.st39{opacity:0.45;fill:url(#SVGID_00000116930615487213650460000016616240784388828051_);enable-background:new    ;}
	.st40{fill:url(#SVGID_00000065783441037519882850000003341656200269223847_);}
	.st41{opacity:0.25;fill:#FFFFFF;enable-background:new    ;}
	.st42{opacity:0.2;fill:url(#SVGID_00000097463918197985611570000005845084098992278147_);enable-background:new    ;}
</style>
<path d="M667.2,541.9V365h44.4c29.4,0,51.6,7.2,66.9,21.9c15.3,14.7,22.8,35.9,22.8,64.1c0,17.8-3.8,33.7-11.2,47.5
	s-18.1,24.4-32.5,31.9c-14.1,7.5-30.3,11.2-48.8,11.2h-41.6L667.2,541.9L667.2,541.9z M679.4,376.3v154.4h27.8
	c26.2,0,46.6-6.9,60.6-20.6c14.1-13.8,20.9-33.4,20.9-58.7c0-50-26.2-75.3-79.1-75.3h-30.3L679.4,376.3L679.4,376.3z M828.8,600.9
	c-3.4,0-6.8-0.6-10-1.9v-11.2c3.1,1.3,6.6,1.9,10.3,1.9c10,0,18.1-6.9,24.1-20.9l11.6-28.1l-47.8-125.3h12.8l38.1,102.8
	c0.9,2.8,1.9,5.9,2.8,9.4h0.6l2.8-8.4l40.6-103.4h12.2l-61.2,151.9c-5,12.2-10.3,20.9-15.9,25.9
	C844.1,598.4,837.2,600.9,828.8,600.9L828.8,600.9z M1035,541.9v-73.7c0-30.3-10.9-45.6-32.8-45.6c-11.9,0-21.9,4.4-29.7,13.4
	c-7.8,8.8-11.9,20-11.9,33.1v72.5h-11.2V415.3h11.2v22.8h0.6c9.1-17.5,23.4-25.9,43.1-25.9c13.8,0,24.1,4.4,31.2,13.4
	c7.2,9.1,10.9,22.2,10.9,39.1v76.9H1035L1035,541.9L1035,541.9z M1160,541.9v-25.3h-0.6c-4.1,8.8-10,15.6-17.8,20.6
	c-7.8,5-16.2,7.8-25.3,7.8c-11.6,0-20.9-3.4-28.1-10c-7.2-6.6-10.9-15.3-10.9-25.6c0-22.2,14.7-35.3,43.8-40l38.8-5.9
	c0-27.2-10.3-40.6-30.6-40.6c-13.8,0-27.5,5.6-40.6,16.9v-13.8c4.7-3.7,10.9-6.9,19.4-9.4c8.1-2.8,15.6-4.1,22.5-4.1
	c13.1,0,23.1,4.1,30.3,11.9c7.2,8.1,10.6,19.7,10.6,35.3v82.2H1160z M1089.4,508.8c0,7.8,2.5,14.1,7.5,18.7s11.9,6.9,20.6,6.9
	c12.2,0,22.5-4.7,30.3-13.8c8.1-9.1,11.9-20.6,11.9-34.7v-12.2l-34.7,5c-14.1,2.2-23.4,5.3-28.4,9.7
	C1091.9,492.8,1089.4,499.7,1089.4,508.8L1089.4,508.8z M1367.5,541.9v-76.2c0-15.3-2.5-26.2-7.2-32.8c-4.7-6.9-12.8-10-24.1-10
	c-6.6,0-12.5,1.9-18.4,5.9c-5.6,4.1-10.3,9.4-13.4,16.6c-3.1,6.9-5,14.4-5,22.5v74.1h-11.2V465c0-28.1-10.6-42.2-32.2-42.2
	c-10.3,0-19.1,4.4-25.6,13.1c-6.9,8.8-10.3,19.7-10.3,33.1v72.8h-10.6V415.3h11.2v21.2h0.6c8.8-15.9,21.6-24.1,38.8-24.1
	c9.1,0,16.9,2.8,23.4,8.1c6.6,5.3,10.9,12.2,13.4,20.9c3.8-9.1,9.4-15.9,16.9-21.2c7.5-5,15.3-7.8,24.1-7.8
	c27.5,0,41.6,17.2,41.6,51.2v78.1L1367.5,541.9L1367.5,541.9z M1422.5,383.8c-2.5,0-4.7-0.9-6.6-2.8c-1.9-1.9-2.8-4.1-2.8-6.9
	c0-2.8,0.9-5,2.8-6.6c1.9-1.6,4.1-2.5,6.6-2.5c2.5,0,4.7,0.9,6.9,2.5c1.9,1.6,2.8,3.8,2.8,6.6c0,2.5-0.9,5-2.8,6.9
	C1427.2,382.8,1425,383.8,1422.5,383.8z M1416.9,541.9V415.3h11.3v126.3h-11.3V541.9z M1550.3,536.3c-9.4,5.6-20.6,8.8-33.4,8.8
	c-11.2,0-21.2-2.8-30-8.1c-8.8-5.3-15.6-13.1-20.3-22.8c-4.7-9.7-7.2-20.9-7.2-33.1c0-12.8,2.8-24.7,8.1-35.3s13.1-18.7,22.5-24.7
	c9.7-5.9,20.6-8.8,32.5-8.8c9.7,0,19.1,1.9,28.1,5.9v12.8c-8.9-5.6-19.2-8.5-29.7-8.4c-9.7,0-18.1,2.5-25.9,7.2
	c-7.5,5-13.4,11.6-17.8,20.6c-4.1,8.8-6.2,18.8-6.2,29.7c0,16.2,4.1,29.4,12.5,39.4c8.4,10,19.4,15,33.4,15c12.8,0,23.7-3.4,33.1-10
	v11.9L1550.3,536.3L1550.3,536.3z M1574.1,536.3v-13.8c3.8,3.4,8.8,6.2,15,8.4c6.2,2.2,11.6,3.4,16.2,3.4c19.7,0,29.7-8.1,29.7-24.4
	c0-5.3-1.9-10-5.9-13.8c-4.1-3.8-11.3-8.1-21.9-12.8c-11.6-5-19.7-10-25-15.6c-5.3-5.6-7.8-12.5-7.8-21.2c0-10,3.8-18.1,11.6-24.7
	c7.8-6.6,17.5-9.7,29.1-9.7c10.6,0,20,2.2,27.8,6.6v12.8c-9.4-5.9-19.1-9.1-29.1-9.1c-8.1,0-15,2.2-20,6.6c-5,4.4-7.8,10-7.8,16.9
	c0,5,0.6,8.8,2.2,11.2c1.6,2.8,4.1,5.3,7.8,7.8s9.1,5.3,15.9,8.4c13.4,5.9,22.5,11.6,27.5,16.6c4.7,5,7.2,11.9,7.2,20
	c0,10.3-3.8,18.8-11.6,25c-7.8,6.2-18.1,9.7-30.9,9.7C1592.5,544.7,1582.2,541.9,1574.1,536.3L1574.1,536.3z M1746.3,224.4v-26.1
	h-32.5v-40.6l-1.1,0.3l-30.5,9.3l-0.6,0.2v30.8h-48.1v-17.2c0-8,1.8-14.1,5.3-18.2c3.5-4,8.5-6.1,14.9-6.1c4.6,0,9.3,1.1,14.1,3.2
	l1.2,0.5v-27.5l-0.6-0.2c-4.5-1.6-10.5-2.4-18-2.4c-9.5,0-18.1,2.1-25.6,6.1c-7.5,4.1-13.4,9.9-17.5,17.3c-4.1,7.4-6.2,16-6.2,25.5
	v18.9h-22.6v26.1h22.6v110.1h32.4V224.4h48.1v70c0,28.8,13.6,43.4,40.4,43.4c4.4,0,9-0.5,13.8-1.5c4.8-1,8.1-2.1,10-3.2l0.4-0.3
	v-26.4l-1.3,0.9c-1.8,1.2-4,2.1-6.5,2.8c-2.6,0.7-4.7,1.1-6.4,1.1c-6.3,0-10.9-1.7-13.8-5c-2.9-3.4-4.4-9.3-4.4-17.5v-64.3H1746.3
	L1746.3,224.4z M1506.1,311.3c-11.8,0-21.1-3.9-27.6-11.6c-6.6-7.7-9.9-18.8-9.9-32.8c0-14.4,3.3-25.8,9.9-33.6
	c6.5-7.8,15.7-11.8,27.3-11.8c11.3,0,20.2,3.8,26.6,11.3c6.4,7.5,9.7,18.7,9.7,33.4c0,14.8-3.1,26.2-9.1,33.8
	C1527,307.5,1517.9,311.3,1506.1,311.3 M1507.5,195c-22.5,0-40.3,6.6-53,19.6c-12.7,13-19.2,31-19.2,53.4c0,21.3,6.3,38.5,18.7,51
	c12.4,12.5,29.3,18.8,50.2,18.8c21.8,0,39.3-6.7,52-19.8c12.7-13.2,19.2-31,19.2-52.9c0-21.7-6-39-18-51.4
	C1545.5,201.3,1528.7,195,1507.5,195 M1383,195c-15.3,0-27.9,3.9-37.6,11.6c-9.7,7.8-14.6,17.9-14.6,30.2c0,6.4,1.1,12.1,3.2,16.9
	c2.1,4.8,5.4,9.1,9.7,12.7c4.3,3.5,10.9,7.3,19.7,11c7.4,3,12.9,5.6,16.4,7.6c3.4,2,5.9,4,7.2,5.9c1.3,1.9,2,4.5,2,7.7
	c0,9.2-6.9,13.6-21,13.6c-5.2,0-11.2-1.1-17.7-3.2c-6.5-2.1-12.6-5.2-18.2-9.2l-1.3-1v31.2l0.5,0.2c4.6,2.1,10.4,3.9,17.2,5.3
	c6.8,1.4,13,2.1,18.4,2.1c16.6,0,29.9-3.9,39.7-11.7c9.8-7.8,14.8-18.2,14.8-30.9c0-9.2-2.7-17.1-7.9-23.4
	c-5.2-6.3-14.3-12.1-27-17.2c-10.1-4.1-16.6-7.4-19.2-10c-2.6-2.5-3.9-6-3.9-10.5c0-4,1.6-7.1,4.9-9.7c3.3-2.6,8-3.9,13.8-3.9
	c5.4,0,10.9,0.9,16.4,2.5c5.5,1.7,10.3,3.9,14.4,6.7l1.3,0.9V201l-0.5-0.2c-3.7-1.6-8.6-3-14.6-4.1
	C1393.1,195.6,1387.7,195,1383,195 M1246.2,311.3c-11.8,0-21.1-3.9-27.6-11.6c-6.6-7.7-9.9-18.8-9.9-32.8c0-14.4,3.3-25.8,9.9-33.6
	c6.5-7.8,15.7-11.8,27.3-11.8c11.2,0,20.2,3.8,26.6,11.3c6.4,7.5,9.7,18.7,9.7,33.4c0,14.8-3.1,26.2-9.1,33.8
	C1267.1,307.5,1258,311.3,1246.2,311.3 M1247.6,195c-22.5,0-40.3,6.6-53,19.6c-12.7,13-19.2,31-19.2,53.4c0,21.3,6.3,38.5,18.7,51
	c12.4,12.5,29.3,18.8,50.2,18.8c21.8,0,39.3-6.7,52-19.8c12.7-13.2,19.2-31,19.2-52.9c0-21.7-6-39-18-51.4
	C1285.6,201.3,1268.8,195,1247.6,195 M1126.2,221.9v-23.6h-32.1v136.3h32.1v-69.7c0-11.9,2.7-21.6,8-28.9
	c5.2-7.3,12.2-10.9,20.7-10.9c2.9,0,6.1,0.5,9.6,1.4c3.5,0.9,6,2,7.5,3l1.3,1v-32.3l-0.5-0.2c-3-1.3-7.2-1.9-12.6-1.9
	c-8.1,0-15.3,2.6-21.4,7.7c-5.4,4.5-9.3,10.6-12.3,18.3H1126.2z M1036.7,195c-14.7,0-27.8,3.2-39,9.4c-11.2,6.2-19.8,15.1-25.7,26.4
	c-5.9,11.3-8.8,24.5-8.8,39.2c0,12.9,2.9,24.7,8.6,35.1c5.7,10.4,13.8,18.6,24,24.2c10.2,5.7,22,8.5,35,8.5c15.2,0,28.2-3,38.7-9.1
	l0.4-0.2v-29.4l-1.3,1c-4.7,3.4-10,6.2-15.7,8.2c-5.7,2-10.8,3-15.4,3c-12.6,0-22.7-3.9-30-11.7c-7.3-7.8-11.1-18.7-11.1-32.4
	c0-13.8,3.9-25,11.5-33.3c7.6-8.2,17.7-12.4,30.1-12.4c10.5,0,20.8,3.6,30.5,10.6l1.3,1v-30.9l-0.4-0.2c-3.7-2-8.6-3.7-14.8-5
	C1048.5,195.7,1042.4,195,1036.7,195 M941.1,198.3h-32.1v136.3h32.1V198.3L941.1,198.3z M925.4,140.3c-5.3,0-9.9,1.8-13.7,5.4
	c-3.8,3.6-5.7,8.1-5.7,13.4c0,5.2,1.9,9.6,5.7,13.1c3.7,3.5,8.4,5.2,13.7,5.2c5.4,0,10-1.8,13.8-5.2c3.8-3.5,5.7-7.9,5.7-13.1
	c0-5.1-1.9-9.6-5.6-13.2C935.7,142.1,931,140.3,925.4,140.3 M845.5,188.2v146.3h32.7V144.4h-45.3l-57.5,141.2l-55.8-141.2h-47.1
	v190.1h30.7V188.2h1.1l59,146.3h23.2l58-146.3L845.5,188.2L845.5,188.2z"/>
<g>
	<path d="M572.2,573l-13.4-1.6l-0.3-219.1l13.4,1.6L572.2,573z"/>
	<path class="st0" d="M479.4,352l-13.4-1.6h92.5l13.4,1.6H479.4z"/>
	<path class="st1" d="M478.7,380.2l-13.4-1.6l0.6-28.1l13.4,1.6L478.7,380.2z"/>
	<path class="st2" d="M476.6,348.9l-13.4-1.6h98.1l13.4,1.6H476.6z"/>
	<path class="st2" d="M475.9,377.3l-13.4-1.9l0.6-28.1l13.4,1.6L475.9,377.3z"/>
	<path class="st2" d="M448.4,377.3l-13.4-1.9h27.5l13.4,1.9H448.4z"/>
	<path class="st0" d="M445.6,380.2l-13.4-1.6h33.1l13.4,1.6H445.6z"/>
	<path d="M445.6,380.2l-13.4-1.6l0.6-28.1l13.4,1.6L445.6,380.2z"/>
	<path class="st2" d="M380.9,489.8l-13.4-1.9l0.9-38.4l13.4,3.4L380.9,489.8z"/>
	<path class="st2" d="M380.9,486.7l-13.4-1.6l0.9-30.6l13.4,1.6L380.9,486.7z"/>
	<path d="M355.3,580.5l-13.4-1.6l216.9-9.7l13.4,1.9L355.3,580.5z"/>
	<path class="st0" d="M355.6,487.7l-13.4-1.6l25.3,1.9l13.4,1.9L355.6,487.7z"/>
	<path class="st1" d="M355.3,580.5l-13.4-1.6l0.3-92.8l13.4,1.6L355.3,580.5z"/>
	<path class="st2" d="M352.5,583.6l-13.4-1.9l0.3-96.9l13.4,1.6L352.5,583.6z"/>
	<path class="st2" d="M352.8,486.4l-13.4-1.6l25.6,1.6l13.4,1.9L352.8,486.4z"/>
	<path d="M356.2,451.1l-13.4-1.6l25.6,1.9l13.4,1.6L356.2,451.1z"/>
	<path class="st0" d="M357.8,352l-13.4-1.6h88.4l13.4,1.6H357.8z"/>
	<path class="st1" d="M356.2,451.1l-13.4-1.6l1.6-99.1l13.4,1.6L356.2,451.1z"/>
	<g class="st3">
		
			<linearGradient id="SVGID_1_" gradientUnits="userSpaceOnUse" x1="349.487" y1="257.1457" x2="318.7397" y2="172.6678" gradientTransform="matrix(3.125 0 0 3.125 -581.7034 -208.1365)">
			<stop  offset="0" style="stop-color:#BE1E2D"/>
			<stop  offset="1" style="stop-color:#F05323"/>
		</linearGradient>
		<path class="st4" d="M571.9,353l0.3,220l-216.9,7.5v-92.8l25.6,2.2l0.9-36.9l-25.6-1.9l1.6-99.1h88.1l-0.6,28.1h33.1l0.9-28.1
			L571.9,353z"/>
	</g>
	<g class="st5">
		
			<linearGradient id="SVGID_00000072248132138039825900000002573961729033941647_" gradientUnits="userSpaceOnUse" x1="300.83" y1="226.9206" x2="362.548" y2="204.4576" gradientTransform="matrix(3.125 0 0 3.125 -581.7034 -208.1365)">
			<stop  offset="0" style="stop-color:#F7FCFC"/>
			<stop  offset="0.219" style="stop-color:#FBFDFE;stop-opacity:0.781"/>
			<stop  offset="1" style="stop-color:#FFFFFF;stop-opacity:0"/>
		</linearGradient>
		<path style="fill:url(#SVGID_00000072248132138039825900000002573961729033941647_);" d="M571.9,352.3l0.3,220.3l-216.9,7.5
			l0.3-90.3h26.9v-39.1l-26.3,0.3l1.6-99.4h88.4l-0.6,28.4h33.1l0.6-28.4L571.9,352.3z"/>
	</g>
	<path class="st2" d="M353.4,454.2l-13.4-1.6l1.9-105.3l13.4,1.6L353.4,454.2z M355.3,348.9l-13.4-1.6h93.8l13.4,1.6H355.3z"/>
	
		<linearGradient id="SVGID_00000158719142283887107960000006343415466595109040_" gradientUnits="userSpaceOnUse" x1="334.8458" y1="206.3695" x2="334.8458" y2="183.6335" gradientTransform="matrix(3.125 0 0 3.125 -581.7034 -208.1365)">
		<stop  offset="0" style="stop-color:#FFFFFF"/>
		<stop  offset="0.211" style="stop-color:#FBFBFB;stop-opacity:0.789"/>
		<stop  offset="0.347" style="stop-color:#F2F3F3;stop-opacity:0.653"/>
		<stop  offset="0.461" style="stop-color:#E6E7E8;stop-opacity:0.539"/>
		<stop  offset="0.563" style="stop-color:#D5D6D7;stop-opacity:0.437"/>
		<stop  offset="0.657" style="stop-color:#BEC0C2;stop-opacity:0.343"/>
		<stop  offset="0.745" style="stop-color:#A3A5A7;stop-opacity:0.255"/>
		<stop  offset="0.829" style="stop-color:#858789;stop-opacity:0.171"/>
		<stop  offset="0.909" style="stop-color:#616365;stop-opacity:9.000000e-02"/>
		<stop  offset="0.984" style="stop-color:#262526;stop-opacity:1.600000e-02"/>
		<stop  offset="1" style="stop-color:#000000;stop-opacity:0"/>
	</linearGradient>
	
		<path style="opacity:5.000000e-02;fill:url(#SVGID_00000158719142283887107960000006343415466595109040_);enable-background:new    ;" d="
		M358.1,352l-0.9,56.2c0,0,90.3,62.2,213.7,3.1l1.2-59.4h-92.5l-0.9,28.1l-32.8,0.3l0.6-28.4L358.1,352L358.1,352z"/>
	
		<linearGradient id="SVGID_00000062889612435998963500000010436619266268855725_" gradientUnits="userSpaceOnUse" x1="298.9451" y1="215.754" x2="370.1451" y2="215.754" gradientTransform="matrix(3.125 0 0 3.125 -581.7034 -208.1365)">
		<stop  offset="0" style="stop-color:#F05323"/>
		<stop  offset="0.661" style="stop-color:#CE332A"/>
		<stop  offset="1" style="stop-color:#BE1E2D"/>
	</linearGradient>
	<path style="fill:url(#SVGID_00000062889612435998963500000010436619266268855725_);" d="M476.6,348.9l98.1,1.2l0.3,225.6
		l-222.5,7.5l0.3-97.2l25.6,0.3l0.6-31.9l-25.6-0.3l1.6-105.3h93.8l-0.6,28.1h27.5L476.6,348.9L476.6,348.9z M572.2,573l-0.3-219.7
		l-92.5-1.3l-0.6,28.1h-33.1l0.6-28.1h-88.1l-1.6,99.1l25.6,0.3l-0.9,38.1l-25.6-0.3v90.9L572.2,573"/>
	<path d="M377.5,485.2l-12.8-1.6v-28.4l12.8,1.9V485.2z"/>
	<path d="M350,484.5l-15-1.6h28.4l12.8,1.6H350z"/>
	<path d="M349.4,579.8l-15-1.9l0.6-95l15,1.6L349.4,579.8z"/>
	<path class="st0" d="M351.2,456.4l-15-1.9h27.2l12.8,1.9H351.2z"/>
	<path d="M351.2,456.4l-15-1.9l0.9-104.1l14.7,1.9L351.2,456.4z"/>
	<path class="st1" d="M252.2,381.1l-15-1.9l0.6-30.6l15,1.6L252.2,381.1z"/>
	<path class="st0" d="M252.8,350.2l-15-1.6l99.4,1.9l14.7,1.9L252.8,350.2z"/>
	<path class="st9" d="M250,346.7l-15-1.6l105.3,2.2l15,1.6L250,346.7z"/>
	
		<linearGradient id="SVGID_00000063617321737570518490000011558408568869991354_" gradientUnits="userSpaceOnUse" x1="261.08" y1="182.2546" x2="266.097" y2="182.2546" gradientTransform="matrix(3.125 0 0 3.125 -581.7034 -208.1365)">
		<stop  offset="4.900000e-02" style="stop-color:#3B7CC0"/>
		<stop  offset="0.982" style="stop-color:#00AEEF"/>
	</linearGradient>
	<path style="fill:url(#SVGID_00000063617321737570518490000011558408568869991354_);" d="M249.1,377.7l-15-1.9l0.9-30.6l15,1.6
		L249.1,377.7z"/>
	<path class="st9" d="M218.4,377.7l-15-1.9h30.6l15,1.9H218.4z"/>
	<path class="st0" d="M215.3,381.1l-15-1.9h36.9l15,1.9H215.3z"/>
	<path d="M215.3,381.1l-15-1.9l0.6-31.6l15,1.9L215.3,381.1z M110.3,589.8l-15-1.6L334.4,578l15,1.9L110.3,589.8z"/>
	<path class="st11" d="M352.5,351.7l-0.9,104.4h25.3l-0.3,28.4h-26.3l-0.3,95.6l-240,10l-0.6-243.4l106.6,2.2l-0.6,31.6h36.9
		l0.9-30.9L352.5,351.7z"/>
	<g class="st3">
		
			<linearGradient id="SVGID_00000132045913437034668000000017220397041038900905_" gradientUnits="userSpaceOnUse" x1="257.9275" y1="251.1405" x2="266.1105" y2="179.0025" gradientTransform="matrix(3.125 0 0 3.125 -581.7034 -208.1365)">
			<stop  offset="0" style="stop-color:#006EB7"/>
			<stop  offset="0.145" style="stop-color:#3179BE;stop-opacity:0.855"/>
			<stop  offset="0.458" style="stop-color:#799BD1;stop-opacity:0.542"/>
			<stop  offset="0.912" style="stop-color:#E4E8F5;stop-opacity:8.800000e-02"/>
			<stop  offset="1" style="stop-color:#FFFFFF;stop-opacity:0"/>
		</linearGradient>
		<path style="fill:url(#SVGID_00000132045913437034668000000017220397041038900905_);" d="M351.6,353l-0.9,103.8h25v28.4h-26.2
			l-0.3,95l-239.4,10.3l-0.3-242.8l106.2,2.2l-0.6,31.6h36.6l0.9-30.6L351.6,353z"/>
	</g>
	<path class="st1" d="M110.3,589.8l-15-1.6l-0.6-242.8l15,1.9L110.3,589.8z"/>
	<path class="st0" d="M109.7,347.3l-15-1.9l106.2,2.2l15,1.9L109.7,347.3z"/>
	<path class="st9" d="M106.9,343.9l-15-1.9l112.2,2.2l15,1.9L106.9,343.9z"/>
	
		<linearGradient id="SVGID_00000089565704016110180040000009291216468915588528_" gradientUnits="userSpaceOnUse" x1="215.521" y1="216.2546" x2="220.4203" y2="216.2546" gradientTransform="matrix(3.125 0 0 3.125 -581.7034 -208.1365)">
		<stop  offset="4.900000e-02" style="stop-color:#006EB7"/>
		<stop  offset="0.982" style="stop-color:#00AEEF"/>
	</linearGradient>
	<path style="fill:url(#SVGID_00000089565704016110180040000009291216468915588528_);" d="M107.2,593.3l-15-1.6L91.9,342l15,1.9
		L107.2,593.3z"/>
	
		<linearGradient id="SVGID_00000079483060191464836060000005906863135045582511_" gradientUnits="userSpaceOnUse" x1="220.3438" y1="216.5533" x2="307.5451" y2="216.5533" gradientTransform="matrix(3.125 0 0 3.125 -581.7034 -208.1365)">
		<stop  offset="1.200000e-02" style="stop-color:#00AEEF"/>
		<stop  offset="0.405" style="stop-color:#65CAD9"/>
		<stop  offset="0.791" style="stop-color:#3B7CC0"/>
		<stop  offset="0.982" style="stop-color:#00AEEF"/>
	</linearGradient>
	<path style="fill:url(#SVGID_00000079483060191464836060000005906863135045582511_);" d="M354.4,453h25l-0.3,35h-26.2l-0.3,95.3
		l-245.3,10l-0.3-249.4l112.5,2.2l-0.6,31.6h30.6l0.6-30.9l105.3,2.2L354.4,453z M376.2,484.5v-28.1h-25l0.9-103.7l-99.4-2.5
		l-0.6,30.9h-36.9l0.6-31.6l-106.2-2.2l0.6,242.8l239.1-10.3l0.6-95.3L376.2,484.5"/>
	
		<linearGradient id="SVGID_00000079453978117800736840000010507803359972626866_" gradientUnits="userSpaceOnUse" x1="259.9451" y1="208.0315" x2="259.9451" y2="182.8425" gradientTransform="matrix(3.125 0 0 3.125 -581.7034 -208.1365)">
		<stop  offset="0" style="stop-color:#FFFFFF"/>
		<stop  offset="0.211" style="stop-color:#FBFBFB;stop-opacity:0.789"/>
		<stop  offset="0.347" style="stop-color:#F2F3F3;stop-opacity:0.653"/>
		<stop  offset="0.461" style="stop-color:#E6E7E8;stop-opacity:0.539"/>
		<stop  offset="0.563" style="stop-color:#D5D6D7;stop-opacity:0.437"/>
		<stop  offset="0.657" style="stop-color:#BEC0C2;stop-opacity:0.343"/>
		<stop  offset="0.745" style="stop-color:#A3A5A7;stop-opacity:0.255"/>
		<stop  offset="0.829" style="stop-color:#858789;stop-opacity:0.171"/>
		<stop  offset="0.909" style="stop-color:#616365;stop-opacity:9.000000e-02"/>
		<stop  offset="0.984" style="stop-color:#262526;stop-opacity:1.600000e-02"/>
		<stop  offset="1" style="stop-color:#000000;stop-opacity:0"/>
	</linearGradient>
	
		<path style="opacity:5.000000e-02;fill:url(#SVGID_00000079453978117800736840000010507803359972626866_);enable-background:new    ;" d="
		M109.4,348.3v62.2c0,0,104.1,69.4,241.2,3.4l1.2-60.6l-99.1-2.2l-0.9,30.6l-36.6,0.3l0.6-31.9L109.4,348.3L109.4,348.3z"/>
	
		<linearGradient id="SVGID_00000087380748776898196560000013805948041650683558_" gradientUnits="userSpaceOnUse" x1="220.605" y1="216.5651" x2="225.546" y2="216.4901" gradientTransform="matrix(3.125 0 0 3.125 -581.7034 -208.1365)">
		<stop  offset="0" style="stop-color:#00AEEF"/>
		<stop  offset="9.000000e-02" style="stop-color:#00B0F0;stop-opacity:0.91"/>
		<stop  offset="0.257" style="stop-color:#00B8F1;stop-opacity:0.743"/>
		<stop  offset="0.482" style="stop-color:#47C8F5;stop-opacity:0.518"/>
		<stop  offset="0.754" style="stop-color:#ADE1FA;stop-opacity:0.246"/>
		<stop  offset="1" style="stop-color:#FFFFFF;stop-opacity:0"/>
	</linearGradient>
	<path style="opacity:0.25;fill:url(#SVGID_00000087380748776898196560000013805948041650683558_);enable-background:new    ;" d="
		M109.7,347.3l0.3,242.5l24.1-0.9L126.9,348L109.7,347.3z"/>
	
		<linearGradient id="SVGID_00000046328066475403278840000017563004436547710121_" gradientUnits="userSpaceOnUse" x1="-2509.4619" y1="216.4017" x2="-2505.6799" y2="216.3437" gradientTransform="matrix(-3.125 0 0 3.125 -7732.8101 -208.1365)">
		<stop  offset="0" style="stop-color:#00AEEF"/>
		<stop  offset="9.000000e-02" style="stop-color:#00B0F0;stop-opacity:0.91"/>
		<stop  offset="0.257" style="stop-color:#00B8F1;stop-opacity:0.743"/>
		<stop  offset="0.482" style="stop-color:#47C8F5;stop-opacity:0.518"/>
		<stop  offset="0.754" style="stop-color:#ADE1FA;stop-opacity:0.246"/>
		<stop  offset="1" style="stop-color:#FFFFFF;stop-opacity:0"/>
	</linearGradient>
	<path style="opacity:0.25;fill:url(#SVGID_00000046328066475403278840000017563004436547710121_);enable-background:new    ;" d="
		M106.6,344.2l0.3,249.1l-14.7-1.9V342.7L106.6,344.2z"/>
	<path d="M571.9,347l-13.4-1.6l2.5-212.8l13.8,1.9L571.9,347z"/>
	<path class="st18" d="M387.5,247l-13.4-1.6l0.6-37.2l13.7,1.9L387.5,247z"/>
	<g class="st19">
		
			<linearGradient id="SVGID_00000046322480557656019760000011213839859374006439_" gradientUnits="userSpaceOnUse" x1="304.935" y1="139.454" x2="309.491" y2="139.454" gradientTransform="matrix(3.125 0 0 3.125 -581.7034 -208.1365)">
			<stop  offset="0" style="stop-color:#FCEC55"/>
			<stop  offset="0.27" style="stop-color:#FDE14B"/>
			<stop  offset="0.641" style="stop-color:#FED742"/>
			<stop  offset="0.951" style="stop-color:#FFD43F"/>
		</linearGradient>
		<path style="fill:url(#SVGID_00000046322480557656019760000011213839859374006439_);" d="M384.7,243.9l-13.4-1.6l0.6-30.9
			l13.4,1.6L384.7,243.9z"/>
	</g>
	<path class="st1" d="M358.1,346.1l-13.7-1.9l0.3-98.8l13.4,1.6V346.1z"/>
	<path class="st0" d="M358.1,247l-13.4-1.6h29.4l13.4,1.6H358.1z"/>
	<g class="st19">
		
			<linearGradient id="SVGID_00000114788327505576989960000009195895992345805471_" gradientUnits="userSpaceOnUse" x1="295.465" y1="161.2043" x2="299.883" y2="161.2043" gradientTransform="matrix(3.125 0 0 3.125 -581.7034 -208.1365)">
			<stop  offset="0" style="stop-color:#FCEC55"/>
			<stop  offset="0.27" style="stop-color:#FDE14B"/>
			<stop  offset="0.641" style="stop-color:#FED742"/>
			<stop  offset="0.951" style="stop-color:#FFD43F"/>
		</linearGradient>
		<path style="fill:url(#SVGID_00000114788327505576989960000009195895992345805471_);" d="M355,348.9l-13.4-1.6l0.3-105l13.4,1.6
			L355,348.9z"/>
	</g>
	<path class="st22" d="M355.3,244.2l-13.4-1.9h29.4l13.4,1.9H355.3z"/>
	<path class="st18" d="M359.1,208.6l-13.7-1.6l29.4,1.2l13.7,1.9L359.1,208.6z"/>
	<path class="st0" d="M359.7,121.4l-13.4,0.3l214.7,11.9l13.8,1.6L359.7,121.4z"/>
	<path class="st1" d="M359.1,208.6l-13.7-1.6l0.9-85.9l13.4-0.6L359.1,208.6z"/>
	<path class="st23" d="M574.7,135.2l-2.8,212.2l-95.6-0.9l-0.3,30.6h-28.4l0.6-30.6h-90v-99.1h29.4l0.9-37.2l-29.4-1.6l0.6-87.2
		L574.7,135.2z"/>
	<g class="st24">
		
			<linearGradient id="SVGID_00000029031340215778988990000014315580354933502897_" gradientUnits="userSpaceOnUse" x1="340.7189" y1="173.2354" x2="330.2839" y2="114.1413" gradientTransform="matrix(3.125 0 0 3.125 -581.7034 -208.1365)">
			<stop  offset="0" style="stop-color:#FFFFFF"/>
			<stop  offset="1" style="stop-color:#FFFFFF;stop-opacity:0"/>
		</linearGradient>
		<path style="fill:url(#SVGID_00000029031340215778988990000014315580354933502897_);" d="M575,135.5l-2.8,211.9l-95.3-1.2
			l-0.6,30.6h-28.4l0.6-30.6h-90v-98.8h29.4l0.9-37.2l-29.4-1.2l0.9-87.2L575,135.5z"/>
	</g>
	<g class="st26">
		
			<linearGradient id="SVGID_00000053534677772616236020000000204235186353157038_" gradientUnits="userSpaceOnUse" x1="346.6442" y1="107.3066" x2="320.7892" y2="185.4396" gradientTransform="matrix(3.125 0 0 3.125 -581.7034 -208.1365)">
			<stop  offset="0" style="stop-color:#F89B2D"/>
			<stop  offset="0.134" style="stop-color:#F99C31;stop-opacity:0.867"/>
			<stop  offset="0.264" style="stop-color:#F9A13B;stop-opacity:0.736"/>
			<stop  offset="0.394" style="stop-color:#FAA84D;stop-opacity:0.606"/>
			<stop  offset="0.523" style="stop-color:#FBB366;stop-opacity:0.477"/>
			<stop  offset="0.652" style="stop-color:#FDC282;stop-opacity:0.348"/>
			<stop  offset="0.78" style="stop-color:#FED4A5;stop-opacity:0.22"/>
			<stop  offset="0.906" style="stop-color:#FFE9D2;stop-opacity:9.400000e-02"/>
			<stop  offset="1" style="stop-color:#FFFFFF;stop-opacity:0"/>
		</linearGradient>
		<path style="fill:url(#SVGID_00000053534677772616236020000000204235186353157038_);" d="M574.7,135.2l-2.5,212.2l-95.6-1.2
			l-0.6,30.9h-28.1l0.3-30.9h-90v-98.8h29.4l0.9-37.2l-29.4-1.6l0.9-87.2L574.7,135.2z"/>
	</g>
	<path class="st22" d="M357.2,118.6l-13.4,0.3l220,11.9l13.8,1.6L357.2,118.6z"/>
	<g class="st19">
		
			<linearGradient id="SVGID_00000110436922174390490190000008987760622839945090_" gradientUnits="userSpaceOnUse" x1="295.802" y1="119.4037" x2="300.455" y2="119.4037" gradientTransform="matrix(3.125 0 0 3.125 -581.7034 -208.1365)">
			<stop  offset="0" style="stop-color:#FCEC55"/>
			<stop  offset="9.800000e-02" style="stop-color:#FDE14B"/>
			<stop  offset="0.232" style="stop-color:#FED742"/>
			<stop  offset="0.344" style="stop-color:#FFD43F"/>
			<stop  offset="0.902" style="stop-color:#F7F18F"/>
			<stop  offset="1" style="stop-color:#FCF8CB"/>
		</linearGradient>
		<path style="fill:url(#SVGID_00000110436922174390490190000008987760622839945090_);" d="M356.2,211.7l-13.4-1.6l0.9-91.6
			l13.4-0.3L356.2,211.7z"/>
	</g>
	<g>
		
			<linearGradient id="SVGID_00000134940816093675335900000003075951432454879877_" gradientUnits="userSpaceOnUse" x1="335.3451" y1="188.1875" x2="335.3451" y2="104.4805" gradientTransform="matrix(3.125 0 0 3.125 -581.7034 -208.1365)">
			<stop  offset="0" style="stop-color:#FCEC55"/>
			<stop  offset="9.800000e-02" style="stop-color:#FDE14B"/>
			<stop  offset="0.232" style="stop-color:#FED742"/>
			<stop  offset="0.344" style="stop-color:#FFD43F"/>
			<stop  offset="0.767" style="stop-color:#F7F18F"/>
			<stop  offset="1" style="stop-color:#FCF8CB"/>
		</linearGradient>
		<path style="fill:url(#SVGID_00000134940816093675335900000003075951432454879877_);" d="M357.2,118.3L577.5,132l-2.8,218.1
			l-95.6-1.2l-0.6,30.6h-33.8l0.6-30.6H355l0.3-105h29.4l0.6-30.9l-29.4-1.6L357.2,118.3z M571.9,347.3l2.5-211.9l-214.7-13.7
			l-0.9,87.2l29.4,1.6l-0.6,36.9h-29.4v98.8h90.3l-0.6,30.6h28.1l0.6-30.6L571.9,347.3"/>
	</g>
	<g>
		<path d="M290.3,199.5l-12.8-1.6l25-105l12.8,1.6L290.3,199.5z"/>
		<path d="M313.4,207l-12.8-1.6l-23.1-7.5l12.8,1.6L313.4,207z"/>
		<path class="st30" d="M309.1,238l-12.8-1.6l-23.1-6.6l12.8,1.6L309.1,238z"/>
		<path class="st31" d="M306.9,234.5l-11.9-2.2l-23.8-5.9l12.8,1.6L306.9,234.5z"/>
		<path d="M263.1,310.5l-12.5-1.6l20.6-82.5l12.8,1.6L263.1,310.5z"/>
		<path class="st30" d="M265.3,313.9l-12.8-1.6l-109.4-33.4l12.5,1.6L265.3,313.9z"/>
		<path class="st31" d="M263.1,310.5l-12.5-1.6l-109.4-33.4l12.5,1.6L263.1,310.5z"/>
		<path d="M147.2,305.5l-12.2-2.8l6.2-27.2l12.5,1.6L147.2,305.5z"/>
		<path class="st32" d="M122.5,297.7l-12.8-1.6l5.9-26.9l12.8,1.6L122.5,297.7z"/>
		<path class="st31" d="M147.2,305.5l-12.2-2.8l-25.3-6.6l12.8,1.6L147.2,305.5z"/>
		<path class="st30" d="M149.1,308.9l-11.3-1.6l-31.2-9.1l12.8,1.6L149.1,308.9z"/>
		
			<linearGradient id="SVGID_00000051352782241023822890000004643172467743714479_" gradientUnits="userSpaceOnUse" x1="220.238" y1="158.0043" x2="226.247" y2="158.0043" gradientTransform="matrix(3.125 0 0 3.125 -581.7034 -208.1365)">
			<stop  offset="0" style="stop-color:#1D9647"/>
			<stop  offset="0.283" style="stop-color:#369D47"/>
			<stop  offset="0.805" style="stop-color:#63B345"/>
			<stop  offset="1" style="stop-color:#73BF44"/>
		</linearGradient>
		<path style="fill:url(#SVGID_00000051352782241023822890000004643172467743714479_);" d="M119.4,299.8l-12.8-1.6l5.9-26.9
			l12.8,1.6L119.4,299.8z"/>
		<path d="M315.3,94.5L302.5,93L61.6,3.6l12.5,1.6L315.3,94.5z"/>
		<path class="st32" d="M15.9,234.2l-12.8-1.6L61.6,3.6l12.5,1.6L15.9,234.2z"/>
		<path class="st31" d="M128.4,270.8l-12.8-1.6L3.1,232.7l12.8,1.6L128.4,270.8z"/>
		
			<linearGradient id="SVGID_00000177461294387186279650000015961671901382684855_" gradientUnits="userSpaceOnUse" x1="190.2431" y1="117.1049" x2="288.0431" y2="117.1049" gradientTransform="matrix(3.125 0 0 3.125 -581.7034 -208.1365)">
			<stop  offset="5.500000e-02" style="stop-color:#39B54A"/>
			<stop  offset="0.325" style="stop-color:#73BF44"/>
			<stop  offset="1" style="stop-color:#AED691"/>
		</linearGradient>
		<path style="fill:url(#SVGID_00000177461294387186279650000015961671901382684855_);" d="M293.4,197.3l23.1,7.5l-7.5,33.4
			l-23.1-6.9l-20.6,82.5l-109.4-33.4l-6.9,28.4l-29.7-9.1l5.9-26.9L12.8,236.4L72.2,1.7l246.2,90.6L293.4,197.3L293.4,197.3z
			 M306.9,234.5l6.2-27.5l-23.1-7.5l25-105L74.1,5.2L15.9,234.2l112.5,36.6l-5.9,26.9l24.7,7.8l6.9-28.4l109.4,33.4l20.6-82.5
			L306.9,234.5"/>
		<path class="st35" d="M74.4,5.2l240.9,89.4l-24.7,105l22.8,7.5l-6.2,27.5l-23.1-6.6l-20.6,82.5L154.1,277l-6.9,28.4l-24.7-7.8
			l6.2-26.9L15.9,234.2L74.4,5.2z"/>
		<g class="st36">
			
				<linearGradient id="SVGID_00000039828865091763633030000006207964264192574592_" gradientUnits="userSpaceOnUse" x1="221.9133" y1="156.1751" x2="254.0733" y2="90.2372" gradientTransform="matrix(3.125 0 0 3.125 -581.7034 -208.1365)">
				<stop  offset="0" style="stop-color:#FFFFFF;stop-opacity:0.5"/>
				<stop  offset="5.100000e-02" style="stop-color:#F4F9F0;stop-opacity:0.526"/>
				<stop  offset="0.407" style="stop-color:#BEDDA3;stop-opacity:0.704"/>
				<stop  offset="0.695" style="stop-color:#96CC6E;stop-opacity:0.847"/>
				<stop  offset="0.898" style="stop-color:#7DC24D;stop-opacity:0.949"/>
				<stop  offset="1" style="stop-color:#73BF44"/>
			</linearGradient>
			<path style="fill:url(#SVGID_00000039828865091763633030000006207964264192574592_);" d="M73.4,5.2l240.9,89.4l-25,105l23.1,7.2
				l-6.2,27.8l-23.1-6.9l-20.6,82.8L153.1,277l-6.9,28.4l-24.7-7.8l5.9-26.9L15,234.2L73.4,5.2z"/>
		</g>
		<g class="st38">
			
				<linearGradient id="SVGID_00000117653746080774338280000007879066136693995692_" gradientUnits="userSpaceOnUse" x1="236.4639" y1="132.2945" x2="247.3989" y2="82.4585" gradientTransform="matrix(3.125 0 0 3.125 -581.7034 -208.1365)">
				<stop  offset="0" style="stop-color:#FFFFFF"/>
				<stop  offset="0.211" style="stop-color:#FBFBFB;stop-opacity:0.789"/>
				<stop  offset="0.347" style="stop-color:#F2F3F3;stop-opacity:0.653"/>
				<stop  offset="0.461" style="stop-color:#E6E7E8;stop-opacity:0.539"/>
				<stop  offset="0.563" style="stop-color:#D5D6D7;stop-opacity:0.437"/>
				<stop  offset="0.657" style="stop-color:#BEC0C2;stop-opacity:0.343"/>
				<stop  offset="0.745" style="stop-color:#A3A5A7;stop-opacity:0.255"/>
				<stop  offset="0.829" style="stop-color:#858789;stop-opacity:0.171"/>
				<stop  offset="0.909" style="stop-color:#616365;stop-opacity:9.000000e-02"/>
				<stop  offset="0.984" style="stop-color:#262526;stop-opacity:1.600000e-02"/>
				<stop  offset="1" style="stop-color:#000000;stop-opacity:0"/>
			</linearGradient>
			
				<path style="opacity:0.45;fill:url(#SVGID_00000117653746080774338280000007879066136693995692_);enable-background:new    ;" d="
				M73.8,5.2L315,94.8l-22.2,91.9c0,0-74.4,61.9-263.4-7.2C40.9,128,73.8,5.2,73.8,5.2L73.8,5.2z"/>
		</g>
		<path class="st30" d="M125.3,273l-12.8-1.6L0,234.8l12.8,1.6L125.3,273z"/>
		<g>
			
				<linearGradient id="SVGID_00000076594131946635611780000014576535013890053509_" gradientUnits="userSpaceOnUse" x1="194.5481" y1="103.6749" x2="198.7511" y2="104.7" gradientTransform="matrix(3.125 0 0 3.125 -581.7034 -208.1365)">
				<stop  offset="0" style="stop-color:#1D9647"/>
				<stop  offset="0.283" style="stop-color:#369D47"/>
				<stop  offset="0.805" style="stop-color:#63B345"/>
				<stop  offset="1" style="stop-color:#73BF44"/>
			</linearGradient>
			<path style="fill:url(#SVGID_00000076594131946635611780000014576535013890053509_);" d="M12.8,236.4L0,234.8L59.7,0.2l12.8,1.6
				L12.8,236.4z"/>
		</g>
		<path class="st41" d="M73.1,5.2L15,234.2l2.8,0.9L75.9,6.4L73.1,5.2z"/>
	</g>
	
		<linearGradient id="SVGID_00000111897931950892440200000017342760397932730528_" gradientUnits="userSpaceOnUse" x1="307.0835" y1="106.4729" x2="358.4335" y2="122.682" gradientTransform="matrix(3.125 0 0 3.125 -581.7034 -208.1365)">
		<stop  offset="0" style="stop-color:#FFFFFF"/>
		<stop  offset="1" style="stop-color:#FFFFFF;stop-opacity:0"/>
	</linearGradient>
	<path style="opacity:0.2;fill:url(#SVGID_00000111897931950892440200000017342760397932730528_);enable-background:new    ;" d="
		M359.7,120.8l-0.9,44.4c0,0,90.3,62.8,214.4,3.1l1.2-34.1l-90.3-5.3l-33.4-2.2L359.7,120.8L359.7,120.8z"/>
</g>
</svg>
